<svg xmlns="http://www.w3.org/2000/svg" stroke="currentColor" viewBox="0 0 32 32" focusable="false"><path d="M25.7295 7.764C23.8883 6.9272 21.9438 6.33411 19.9462 6C19.673 6.48048 19.4275 6.97595 19.2109 7.484C17.0871 7.17603 14.9293 7.17603 12.8055 7.484C12.6075 7.022 12.3106 6.434 12.0702 6C10.062 6.32765 8.10732 6.92096 6.25867 7.764C3.00167 12.3352 1.53423 17.9229 2.12978 23.486C4.26968 25.0433 6.66001 26.2314 9.1998 27C9.77639 26.2392 10.2828 25.4286 10.7128 24.578C9.88699 24.2741 9.09169 23.8944 8.33726 23.444L8.917 22.996C11.1275 24.0305 13.542 24.5671 15.987 24.5671C18.432 24.5671 20.8466 24.0305 23.057 22.996C23.255 23.15 23.4388 23.304 23.6509 23.444C22.8852 23.8919 22.0808 24.2714 21.2471 24.578C21.6911 25.4299 22.2116 26.2406 22.8025 27C25.3423 26.2314 27.7326 25.0433 29.8725 23.486C30.4627 17.9213 28.9903 12.3339 25.7295 7.764ZM11.3632 20.364C11.0121 20.3444 10.6683 20.2563 10.3516 20.1048C10.0349 19.9533 9.75149 19.7415 9.51766 19.4813C9.28383 19.2212 9.10416 18.9179 8.98895 18.5889C8.87374 18.2599 8.82527 17.9116 8.8463 17.564C8.82335 17.216 8.8705 16.8669 8.98499 16.5371C9.09948 16.2073 9.27903 15.9033 9.51322 15.6427C9.7474 15.3822 10.0315 15.1704 10.3491 15.0195C10.6667 14.8687 11.0114 14.7818 11.3632 14.764C11.7157 14.7799 12.0613 14.8655 12.3798 15.0158C12.6983 15.166 12.9832 15.3778 13.2178 15.6388C13.4523 15.8997 13.6317 16.2044 13.7455 16.5351C13.8593 16.8657 13.905 17.2156 13.8802 17.564C13.9072 18.2566 13.6587 18.9321 13.1881 19.4453C12.7174 19.9584 12.0622 20.2682 11.3632 20.308V20.364ZM20.6532 20.364C19.9454 20.3207 19.2835 20.002 18.812 19.4775C18.3405 18.953 18.0976 18.2651 18.1363 17.564C18.1153 17.2164 18.1638 16.8681 18.279 16.5391C18.3942 16.21 18.5738 15.9068 18.8077 15.6467C19.0415 15.3865 19.3249 15.1747 19.6416 15.0232C19.9583 14.8717 20.3021 14.7836 20.6532 14.764C21.0057 14.7799 21.3513 14.8655 21.6698 15.0158C21.9883 15.166 22.2732 15.3778 22.5078 15.6388C22.7423 15.8997 22.9218 16.2044 23.0355 16.5351C23.1493 16.8657 23.1951 17.2156 23.1702 17.564C23.201 18.2576 22.9537 18.9351 22.4823 19.4491C22.0109 19.963 21.3535 20.2717 20.6532 20.308V20.364Z" fill="currentColor"></path></svg>
