<svg xmlns="http://www.w3.org/2000/svg" stroke="currentColor" viewBox="0 0 32 32" focusable="false"><path fill-rule="evenodd" clip-rule="evenodd" fill="currentColor" d="M21.618 25.7792C21.9266 26.0072 22.3243 26.0642 22.6788 25.9242C23.0334 25.7832 23.2941 25.4672 23.3727 25.0842C24.2054 21.0002 26.2255 10.6632 26.9836 6.94815C27.0411 6.66815 26.9452 6.37715 26.7344 6.19015C26.5236 6.00315 26.2313 5.94915 25.9706 6.05015C21.9524 7.60215 9.57775 12.4472 4.51979 14.4002C4.19875 14.5242 3.98984 14.8462 4.00038 15.1992C4.01188 15.5532 4.23996 15.8602 4.56866 15.9632C6.83698 16.6712 9.81446 17.6562 9.81446 17.6562C9.81446 17.6562 11.2059 22.0412 11.9314 24.2712C12.0224 24.5512 12.2323 24.7712 12.5092 24.8472C12.7852 24.9222 13.0804 24.8432 13.2864 24.6402C14.4517 23.4922 16.2534 21.7172 16.2534 21.7172C16.2534 21.7172 19.6764 24.3362 21.618 25.7792ZM11.067 17.1022L12.676 22.6402L13.0334 19.1332C13.0334 19.1332 19.25 13.2822 22.7938 9.94715C22.8973 9.84915 22.9117 9.68515 22.8255 9.57015C22.7402 9.45515 22.583 9.42815 22.4651 9.50615C18.3578 12.2432 11.067 17.1022 11.067 17.1022Z"></path></svg>